<svg data-v-423bf9ae="" xmlns="http://www.w3.org/2000/svg" viewBox="0 0 662.6559386946712 60" class="font"><!----><!----><!----><g data-v-423bf9ae="" id="3998331b-c8c6-4423-a12f-b833e28d7792" fill="black" transform="matrix(6.036217212677002,0,0,6.036217212677002,-1.2072577476501465,-27.645875930786133)"><path d="M0.20 14.35L3.28 14.35L3.28 13.40L2.16 13.40L2.83 11.38L6.02 11.38L6.69 13.40L5.57 13.40L5.57 14.35L9.84 14.35L9.84 13.40L9.13 13.40L6.03 4.58L4.00 4.58L0.91 13.40L0.20 13.40ZM4.40 6.34L4.45 6.34L5.75 10.40L3.12 10.40ZM14.03 14.52C15.88 14.52 16.77 13.31 17.11 12.38L16.28 11.90C16.02 12.56 15.40 13.12 14.36 13.12C13.34 13.12 12.74 12.49 12.74 11.30L12.74 9.80C12.74 8.47 13.40 7.74 14.55 7.74C14.95 7.74 15.18 7.80 15.36 7.85L15.36 7.94C15.05 8.09 14.74 8.41 14.74 8.90C14.74 9.49 15.15 9.90 15.86 9.90C16.56 9.90 17.01 9.45 17.01 8.72C17.01 7.64 16.02 6.83 14.27 6.83C12.05 6.83 10.35 8.19 10.35 10.67C10.35 12.84 11.62 14.52 14.03 14.52ZM18.00 14.35L21.83 14.35L21.83 13.40L21.11 13.40L21.11 9.37C21.11 8.64 21.71 8.30 22.36 8.30C23.09 8.30 23.38 8.68 23.38 9.62L23.38 13.40L22.67 13.40L22.67 14.35L26.36 14.35L26.36 13.40L25.65 13.40L25.65 9.37C25.65 8.64 26.25 8.30 26.89 8.30C27.62 8.30 27.92 8.68 27.92 9.62L27.92 13.40L27.20 13.40L27.20 14.35L31.02 14.35L31.02 13.40L30.18 13.40L30.18 9.53C30.18 7.73 29.53 6.83 27.76 6.83C26.56 6.83 25.84 7.48 25.54 8.22L25.48 8.22C25.20 7.31 24.49 6.83 23.23 6.83C22.02 6.83 21.42 7.48 21.15 8.23L21.07 8.23L21.07 6.83L18.00 7.45L18.00 8.29L18.84 8.47L18.84 13.40L18.00 13.40ZM35.62 14.52C37.53 14.52 38.49 13.34 38.81 12.43L38.00 11.96C37.74 12.59 37.11 13.12 36.11 13.12C35.03 13.12 34.31 12.50 34.31 11.30L34.31 10.71L38.98 10.71L38.98 10.22C38.98 8.13 37.63 6.83 35.49 6.83C33.33 6.83 31.92 8.27 31.92 10.67C31.92 12.89 33.25 14.52 35.62 14.52ZM34.31 9.60C34.31 8.26 34.80 7.83 35.50 7.83C36.20 7.83 36.65 8.27 36.65 9.60L36.65 9.80L34.31 9.80ZM42.95 14.35L46.03 14.35L46.03 13.40L44.91 13.40L45.58 11.38L48.78 11.38L49.45 13.40L48.33 13.40L48.33 14.35L52.60 14.35L52.60 13.40L51.88 13.40L48.79 4.58L46.76 4.58L43.67 13.40L42.95 13.40ZM47.15 6.34L47.21 6.34L48.51 10.40L45.88 10.40ZM56.14 14.52C57.36 14.52 58.00 13.87 58.27 13.12L58.35 13.12L58.35 14.52L61.42 13.90L61.42 13.06L60.58 12.88L60.58 6.83L57.47 7.45L57.47 8.29L58.31 8.47L58.31 11.98C58.31 12.74 57.65 13.05 57.01 13.05C56.22 13.05 55.92 12.67 55.92 11.73L55.92 6.83L52.81 7.45L52.81 8.29L53.65 8.47L53.65 11.80C53.65 13.61 54.32 14.52 56.14 14.52ZM64.76 14.49C65.79 14.49 66.65 14.35 66.96 14.24L66.96 13.37L65.34 13.37L65.34 8.01L66.96 8.01L66.96 7.00L65.34 7.00L65.34 4.96L64.22 4.96L63.60 6.17C63.34 6.72 63.08 7.00 62.48 7.00L62.08 7.00L62.08 8.01L63.07 8.01L63.07 13.02C63.07 13.99 63.62 14.49 64.76 14.49ZM71.36 13.48C70.56 13.48 70.11 12.99 70.11 12.01L70.11 9.34C70.11 8.36 70.56 7.87 71.36 7.87C72.16 7.87 72.60 8.36 72.60 9.34L72.60 12.01C72.60 12.99 72.16 13.48 71.36 13.48ZM71.36 14.52C73.54 14.52 75.00 13.12 75.00 10.67C75.00 8.23 73.54 6.83 71.36 6.83C69.17 6.83 67.72 8.23 67.72 10.68C67.72 13.12 69.17 14.52 71.36 14.52ZM75.89 14.35L83.97 14.35L83.97 11.42L82.25 11.42L82.25 13.30L78.64 13.30L83.82 5.59L83.82 4.58L76.10 4.58L76.10 7.21L77.83 7.21L77.83 5.63L81.07 5.63L75.89 13.34ZM88.72 13.48C87.92 13.48 87.47 12.99 87.47 12.01L87.47 9.34C87.47 8.36 87.92 7.87 88.72 7.87C89.52 7.87 89.96 8.36 89.96 9.34L89.96 12.01C89.96 12.99 89.52 13.48 88.72 13.48ZM88.72 14.52C90.90 14.52 92.36 13.12 92.36 10.67C92.36 8.23 90.90 6.83 88.72 6.83C86.53 6.83 85.08 8.23 85.08 10.68C85.08 13.12 86.53 14.52 88.72 14.52ZM93.41 14.35L97.29 14.35L97.29 13.40L96.52 13.40L96.52 9.37C96.52 8.61 97.17 8.30 97.82 8.30C98.60 8.30 98.91 8.68 98.91 9.62L98.91 13.40L98.14 13.40L98.14 14.35L102.02 14.35L102.02 13.40L101.18 13.40L101.18 9.55C101.18 7.74 100.51 6.83 98.69 6.83C97.47 6.83 96.82 7.48 96.56 8.23L96.47 8.23L96.47 6.83L93.41 7.45L93.41 8.29L94.25 8.47L94.25 13.40L93.41 13.40ZM106.62 14.52C108.54 14.52 109.49 13.34 109.82 12.43L109.00 11.96C108.75 12.59 108.12 13.12 107.11 13.12C106.04 13.12 105.32 12.50 105.32 11.30L105.32 10.71L109.98 10.71L109.98 10.22C109.98 8.13 108.64 6.83 106.50 6.83C104.34 6.83 102.93 8.27 102.93 10.67C102.93 12.89 104.26 14.52 106.62 14.52ZM105.32 9.60C105.32 8.26 105.81 7.83 106.51 7.83C107.21 7.83 107.66 8.27 107.66 9.60L107.66 9.80L105.32 9.80Z"></path></g><!----><!----></svg>